<svg width="119" height="115" viewBox="0 0 119 115" fill="none" xmlns="http://www.w3.org/2000/svg">
<path d="M59.5 1C88.9974 1 113 26.2447 113 57.5C113 88.7553 88.9974 114 59.5 114C30.0026 114 6 88.7553 6 57.5C6 26.2447 30.0026 1 59.5 1Z" fill="#1E1E1E" stroke="#FFC300" stroke-width="2"/>
<path d="M40 27H60.25M80.5 27H60.25M60.25 27C60.25 27 60.25 61.1306 60.25 83" stroke="white" stroke-width="10"/>
<g filter="url(#filter0_d_4_14)">
<path d="M76.5 43V63M76.5 83V63M76.5 63H92H96M96 63V43M96 63V83" stroke="white" stroke-width="10"/>
</g>
<path d="M23 83V59M23 59V39.5C23 39.5 41 36.5 43 39.5C45 42.5 45.5 54 43 59.5C40.5 65 33 62.5 33 62.5M23 59L33 62.5M33 62.5C33 62.5 32 64.5 34.5 65C37 65.5 40.5 71 40.5 71C40.5 71 41 70.5 43 72.5C45 74.5 43 76.4686 43 80C43 83.5314 43 83 43 83" stroke="white" stroke-width="10"/>
<defs>
<filter id="filter0_d_4_14" x="67.5" y="43" width="37.5" height="48" filterUnits="userSpaceOnUse" color-interpolation-filters="sRGB">
<feFlood flood-opacity="0" result="BackgroundImageFix"/>
<feColorMatrix in="SourceAlpha" type="matrix" values="0 0 0 0 0 0 0 0 0 0 0 0 0 0 0 0 0 0 127 0" result="hardAlpha"/>
<feOffset dy="4"/>
<feGaussianBlur stdDeviation="2"/>
<feComposite in2="hardAlpha" operator="out"/>
<feColorMatrix type="matrix" values="0 0 0 0 0 0 0 0 0 0 0 0 0 0 0 0 0 0 0.25 0"/>
<feBlend mode="normal" in2="BackgroundImageFix" result="effect1_dropShadow_4_14"/>
<feBlend mode="normal" in="SourceGraphic" in2="effect1_dropShadow_4_14" result="shape"/>
</filter>
</defs>
</svg>
