<svg width="100" height="110" viewBox="0 0 100 110" fill="none" xmlns="http://www.w3.org/2000/svg">
<path d="M50 1C76.9744 1 99 25.0848 99 55C99 84.9152 76.9744 109 50 109C23.0256 109 1 84.9152 1 55C1 25.0848 23.0256 1 50 1Z" fill="#1E1E1E" stroke="#FFC300" stroke-width="2"/>
<path d="M31 24H51.25M71.5 24H51.25M51.25 24C51.25 24 51.25 58.1306 51.25 80" stroke="white" stroke-width="10"/>
<g filter="url(#filter0_d_4_14)">
<path d="M67.5 40V60M67.5 80V60M67.5 60H83H87M87 60V40M87 60V80" stroke="white" stroke-width="10"/>
</g>
<path d="M14 80V56M14 56V36.5C14 36.5 32 33.5 34 36.5C36 39.5 36.5 51 34 56.5C31.5 62 24 59.5 24 59.5M14 56L24 59.5M24 59.5C24 59.5 23 61.5 25.5 62C28 62.5 31.5 68 31.5 68C31.5 68 32 67.5 34 69.5C36 71.5 34 73.4686 34 77C34 80.5314 34 80 34 80" stroke="white" stroke-width="10"/>
<defs>
<filter id="filter0_d_4_14" x="58.5" y="40" width="37.5" height="48" filterUnits="userSpaceOnUse" color-interpolation-filters="sRGB">
<feFlood flood-opacity="0" result="BackgroundImageFix"/>
<feColorMatrix in="SourceAlpha" type="matrix" values="0 0 0 0 0 0 0 0 0 0 0 0 0 0 0 0 0 0 127 0" result="hardAlpha"/>
<feOffset dy="4"/>
<feGaussianBlur stdDeviation="2"/>
<feComposite in2="hardAlpha" operator="out"/>
<feColorMatrix type="matrix" values="0 0 0 0 0 0 0 0 0 0 0 0 0 0 0 0 0 0 0.25 0"/>
<feBlend mode="normal" in2="BackgroundImageFix" result="effect1_dropShadow_4_14"/>
<feBlend mode="normal" in="SourceGraphic" in2="effect1_dropShadow_4_14" result="shape"/>
</filter>
</defs>
</svg>
